<svg width="28" height="28" viewBox="0 0 28 28" fill="none" xmlns="http://www.w3.org/2000/svg">
<path d="M14 2.33333C20.433 2.33333 25.6667 7.567 25.6667 14C25.6667 20.433 20.433 25.6667 14 25.6667C7.567 25.6667 2.33333 20.433 2.33333 14C2.33333 7.567 7.567 2.33333 14 2.33333ZM14 0C6.2685 0 0 6.2685 0 14C0 21.7315 6.2685 28 14 28C21.7315 28 28 21.7315 28 14C28 6.2685 21.7315 0 14 0ZM14 21V19.2372H13.4167V21H12.25V19.2372H9.352L9.64367 17.5H10.2725C10.7882 17.5 11.0833 17.0042 11.0833 16.5037V11.319C11.0833 10.8337 10.801 10.5 10.2865 10.5H9.33333V8.75H12.25V7H13.4167V8.75H14V7H15.1667V8.78033C17.6843 8.8655 18.6807 9.81983 18.9665 10.8943C19.3048 12.166 18.466 13.2335 17.7462 13.4937C18.6212 13.7177 19.8333 14.364 19.8333 15.8573C19.8333 17.8897 18.2653 19.25 15.1667 19.25V21H14V21ZM13.4167 14.5798V17.5C15.7313 17.5 17.318 17.2807 17.318 16.0323C17.318 14.693 15.6042 14.5798 13.4167 14.5798ZM13.4167 13.4167C14.7058 13.4167 16.6705 13.3257 16.6705 11.9583C16.6705 10.7917 15.4583 10.5 13.4167 10.5V13.4167Z" fill="#1B447A" style="mix-blend-mode:color-burn"/>
</svg>
