<svg width="28" height="28" viewBox="0 0 28 28" fill="none" xmlns="http://www.w3.org/2000/svg">
<path d="M14 2.33333C20.433 2.33333 25.6667 7.567 25.6667 14C25.6667 20.433 20.433 25.6667 14 25.6667C7.567 25.6667 2.33333 20.433 2.33333 14C2.33333 7.567 7.567 2.33333 14 2.33333ZM14 0C6.2685 0 0 6.2685 0 14C0 21.7315 6.2685 28 14 28C21.7315 28 28 21.7315 28 14C28 6.2685 21.7315 0 14 0ZM11.6667 11.6667H9.33333V14H11.6667V21H15.1667V14H17.29L17.5 11.6667H15.1667V10.6948C15.1667 10.1372 15.2787 9.91667 15.8177 9.91667H17.5V7H14.6953C12.5977 7 11.6667 7.924 11.6667 9.69267V11.6667Z" fill="#1B447A"/>
</svg>
