<svg width="28" height="28" viewBox="0 0 28 28" fill="none" xmlns="http://www.w3.org/2000/svg">
<path fill-rule="evenodd" clip-rule="evenodd" d="M14 0C6.2685 0 0 6.2685 0 14C0 21.7315 6.2685 28 14 28C21.7315 28 28 21.7315 28 14C28 6.2685 21.7315 0 14 0ZM14 2.33333C20.433 2.33333 25.6667 7.567 25.6667 14C25.6667 20.433 20.433 25.6667 14 25.6667C7.567 25.6667 2.33333 20.433 2.33333 14C2.33333 7.567 7.567 2.33333 14 2.33333ZM17.1407 19.7038C17.3285 19.838 17.57 19.8707 17.7858 19.789C18.0017 19.7073 18.1615 19.523 18.2082 19.299C18.7157 16.9167 19.9453 10.8862 20.4062 8.71967C20.4412 8.55633 20.384 8.38717 20.2557 8.2775C20.1273 8.169 19.9488 8.1375 19.7902 8.19583C17.3448 9.10117 9.81167 11.9268 6.73283 13.0667C6.53683 13.139 6.40967 13.3268 6.41667 13.5333C6.42367 13.7398 6.5625 13.9183 6.762 13.9778C8.14333 14.3908 9.95633 14.966 9.95633 14.966C9.95633 14.966 10.8022 17.5245 11.2443 18.8253C11.2992 18.9875 11.4275 19.117 11.5955 19.1602C11.7647 19.2045 11.9432 19.159 12.0692 19.04C12.7785 18.3703 13.8752 17.3355 13.8752 17.3355C13.8752 17.3355 15.9588 18.8627 17.1407 19.7038V19.7038ZM10.7182 14.6428L11.6982 17.8733L11.9152 15.827C11.9152 15.827 15.6987 12.4145 17.8558 10.4685C17.92 10.4125 17.9282 10.3168 17.8757 10.2492C17.8232 10.1827 17.7287 10.1663 17.6563 10.2118C15.1562 11.8078 10.7182 14.6428 10.7182 14.6428V14.6428Z" fill="#1B447A"/>
</svg>
