<svg width="28" height="28" viewBox="0 0 28 28" fill="none" xmlns="http://www.w3.org/2000/svg">
<path d="M14 2.33333C20.433 2.33333 25.6667 7.567 25.6667 14C25.6667 20.433 20.433 25.6667 14 25.6667C7.567 25.6667 2.33333 20.433 2.33333 14C2.33333 7.567 7.567 2.33333 14 2.33333ZM14 0C6.2685 0 0 6.2685 0 14C0 21.7315 6.2685 28 14 28C21.7315 28 28 21.7315 28 14C28 6.2685 21.7315 0 14 0ZM21.5833 10.241C21.0688 10.4697 20.5147 10.6237 19.9337 10.6937C20.5275 10.3378 20.9813 9.7755 21.1972 9.10467C20.6418 9.43367 20.027 9.67283 19.3725 9.80117C18.8498 9.24233 18.102 8.8935 17.2772 8.8935C15.4222 8.8935 14.0595 10.6237 14.4783 12.4203C12.0925 12.3002 9.975 11.1568 8.55867 9.41967C7.80617 10.71 8.169 12.3993 9.44767 13.2545C8.9775 13.2393 8.53533 13.1098 8.148 12.8952C8.1165 14.2252 9.07083 15.47 10.4522 15.7477C10.0485 15.8573 9.60517 15.883 9.15483 15.7967C9.52 16.9377 10.5828 17.7672 11.8382 17.7905C10.6283 18.7378 9.10817 19.1613 7.58333 18.9817C8.855 19.7972 10.3635 20.272 11.9852 20.272C17.3192 20.272 20.3315 15.7675 20.1495 11.7273C20.7118 11.3237 21.1983 10.8173 21.5833 10.241V10.241Z" fill="#1B447A"/>
</svg>
