<svg xmlns="http://www.w3.org/2000/svg" width="30" height="30" viewBox="0 0 30 30">
    <g fill="none" fill-rule="evenodd">
        <circle cx="15" cy="15" r="15" fill="#D8D8D8"/>
        <path fill="#A65C6E" d="M23.695 9.883a6.424 6.424 0 0 0-6.421-6.42h-4.402a6.323 6.323 0 0 0-6.32 6.32v.808c0 1.128.916 2.044 2.044 2.044h12.819a2.28 2.28 0 0 0 2.28-2.28v-.472z"/>
        <path fill="#A65C6E" d="M12.118 21.382a3.628 3.628 0 0 0 2.563-4.441l-1.738-6.488a3.628 3.628 0 0 0-4.44-2.564 3.628 3.628 0 0 0-2.565 4.441l1.739 6.488a3.628 3.628 0 0 0 4.44 2.564zM18.14 21.379a3.616 3.616 0 0 1-2.556-4.427l1.744-6.51a3.616 3.616 0 0 1 4.427-2.556 3.616 3.616 0 0 1 2.556 4.427l-1.744 6.51a3.616 3.616 0 0 1-4.427 2.556z"/>
        <path fill="#FC8891" d="M22.263 13.963a.476.476 0 0 0-.476-.476h-.953a.476.476 0 0 0-.476.476v3.434c0 .263.213.476.476.476h.953a.476.476 0 0 0 .476-.476v-3.434z"/>
        <path fill="#A65C6E" d="M24.806 26.503c0-.82-.666-1.487-1.487-1.487H6.61c-.82 0-1.486.666-1.486 1.487 3.06 2.288 6.341 3.454 9.841 3.5 3.5.045 6.781-1.122 9.842-3.5z"/>
        <path fill="#FFA9B0" d="M17.693 21.246a1.31 1.31 0 0 0-1.309-1.31h-3.076c-.73 0-1.322.593-1.322 1.322v5.245h5.707v-5.257z"/>
        <path fill="#FC8891" d="M14.84 18.795c1.76 0 3.19 1.43 3.19 3.19s-1.43 3.19-3.19 3.19-3.19-1.43-3.19-3.19 1.43-3.19 3.19-3.19z"/>
        <path fill="#FC8891" d="M14.205 20.445a.51.51 0 0 0-.51-.508H12.5a.514.514 0 0 0-.514.513v6.053h2.219v-6.058z"/>
        <path fill="#A65C6E" d="M23.04 9.65a5.714 5.714 0 0 0-7.907-7.06l2.53 5.124 5.376 1.936z"/>
        <path fill="#FC8891" d="M10.044 13.963a.476.476 0 0 0-.476-.476h-.953a.476.476 0 0 0-.476.476v3.434c0 .263.213.476.476.476h.953a.476.476 0 0 0 .476-.476v-3.434z"/>
        <path fill="#FFA9B0" d="M21.631 13.08a2.987 2.987 0 0 0-2.985-2.985H11.63a3.016 3.016 0 0 0-3.015 3.015v4.446a6.511 6.511 0 0 0 6.508 6.508 6.511 6.511 0 0 0 6.508-6.508V13.08z"/>
        <path fill="#FC8891" d="M14.84 13.85a3.757 3.757 0 0 0-3.756-3.755 2.47 2.47 0 0 0-2.469 2.47v5.274a6.227 6.227 0 0 0 6.225 6.225V13.85z"/>
        <path fill="#A65C6E" d="M12.95 16.108a1.508 1.508 0 0 0 0-2.132h-2.133a1.508 1.508 0 0 0 0 2.132h2.133zM19.274 16.108a1.508 1.508 0 0 0 0-2.132h-2.132a1.508 1.508 0 0 0 0 2.132h2.132zM16.855 20.889a.476.476 0 0 0-.476-.476h-2.511a.476.476 0 0 0 0 .952h2.51a.476.476 0 0 0 .477-.476zM16.021 18.825a.476.476 0 0 0-.476-.476h-1.241a.476.476 0 0 0 0 .953h1.24a.476.476 0 0 0 .477-.477zM13.828 12.917a.386.386 0 0 0-.386-.386H10.75a.386.386 0 0 0 0 .771h2.692a.386.386 0 0 0 .386-.385zM19.838 12.917a.386.386 0 0 0-.386-.386h-2.691a.386.386 0 0 0 0 .771h2.691a.386.386 0 0 0 .386-.385zM15.744 22.278a.318.318 0 0 0-.318-.318h-.606a.318.318 0 0 0 0 .635h.606a.318.318 0 0 0 .318-.317zM17.411 11.329a5.715 5.715 0 0 0-8.073-6.515l2.53 5.124 5.543 1.39z"/>
    </g>
</svg>
