<svg xmlns="http://www.w3.org/2000/svg" xmlns:xlink="http://www.w3.org/1999/xlink" width="220" height="220" viewBox="0 0 220 220"><title>302F3D26-1285-4F5F-82B2-439F0D44B7C2</title><defs><rect id="a" width="220" height="220" rx="8"/><mask fill="#fff" id="b"><use height="100%" width="100%" xlink:href="#a"/></mask></defs><path mask="url(#b)" d="M206.766 202.258c-25.487-20.913-57.02-36.064-62.465-38.896-.653-.218-1.09-.87-1.09-1.743v-16.992c2.615-5.228 4.14-10.892 5.012-15.902.435.436 1.09.653 1.742.653 2.18 0 5.228-3.05 8.496-14.596 3.485-11.98 1.307-16.12-1.525-16.99 9.585-45.747-12.2-47.272-12.2-47.272s-3.266-6.317-11.98-11.11c-5.01-3.05-11.763-5.446-20.26-5.446-1.306 0-2.83 0-4.138.218-3.485.218-6.753.872-9.802 1.96-3.922 1.308-7.407 3.268-10.674 5.447-3.92 2.615-7.842 5.664-11.11 9.15-5.227 5.446-10.02 12.2-11.98 20.912-1.96 7.407-1.96 15.25 1.09 23.31-4.358 0-8.28 2.83-4.14 17.426 3.268 11.328 6.1 14.377 8.278 14.595 1.09 6.535 3.05 13.506 6.753 20.04v14.814c0 .654-.435 1.307-1.088 1.743-5.664 2.832-37.836 15.484-63.54 36.397C7.347 203.68-.324 210.633-.324 216.515v28.32h210.846L237 227.07c-.436-5.88-25.442-20.89-30.234-24.812z" transform="translate(-434.55 -175.49)" fill="#e9afaf" stroke="#de8787"/><path d="M180 169.016C180 140.25 172.89 107 144.234 107c-8.86 8.64-20.89 14-34.234 14-13.344 0-25.375-5.36-34.234-14C47.11 107 40 140.25 40 169.016 40 184.984 50.5 198 63.297 198h93.406C169.5 198 180 184.984 180 169.016zM152 72c0-23.188-18.812-42-42-42S68 48.812 68 72c0 23.187 18.812 42 42 42s42-18.813 42-42z" style="line-height:1.25;-inkscape-font-specification:'FontAwesome, Normal';font-variant-ligatures:normal;font-variant-caps:normal;font-variant-numeric:normal;font-feature-settings:normal;text-align:start" font-weight="400" font-size="168" font-family="FontAwesome" letter-spacing="0" word-spacing="0" fill="#d8d8d8" stroke-width=".875"/></svg>