<svg xmlns="http://www.w3.org/2000/svg" width="28" height="29" viewBox="0 0 28 29">
    <g fill="none" fill-rule="evenodd">
        <path fill="#226E6E" d="M10.958 0C4.492 1.738 0 7.577 0 14.245 0 22.39 6.64 29 14.82 29A14.87 14.87 0 0 0 22 27.152l-4.809-8.643c-.725.4-1.542.61-2.372.61-2.702 0-4.895-2.184-4.895-4.874a4.878 4.878 0 0 1 3.62-4.706L10.958 0z"/>
        <path fill="#2EC289" d="M21.035 26C25.332 23.655 28 19.184 28 14.33 28 6.972 21.963 1 14.527 1c-3.573 0-7 1.404-9.527 3.904l4.763 4.713a6.774 6.774 0 0 1 4.764-1.952c3.718 0 6.736 2.986 6.736 6.664a6.654 6.654 0 0 1-3.482 5.836L21.035 26z"/>
    </g>
</svg>
