<svg xmlns="http://www.w3.org/2000/svg" width="57" height="55" viewBox="0 0 57 55">
    <defs>
        <linearGradient id="a" x1="12.873%" x2="84.262%" y1="82.825%" y2="13.778%">
            <stop offset="0%" stop-color="#FF8D06"/>
            <stop offset="100%" stop-color="#FFE14A"/>
        </linearGradient>
    </defs>
    <g fill="none" fill-rule="evenodd">
        <path fill="#A11742" d="M25.875 3c14.28 0 25.874 11.594 25.874 25.875 0 14.28-11.594 25.874-25.874 25.874S0 43.155 0 28.875 11.594 3 25.875 3z"/>
        <path fill="url(#a)" d="M24.18.886C37.97-2.809 52.166 5.388 55.862 19.18c3.695 13.791-4.501 27.988-18.293 31.684C23.78 54.558 9.582 46.362 5.886 32.57 2.191 18.78 10.388 4.582 24.18.886z"/>
        <path fill="#FFC34A" d="M50.215 42.758a25.874 25.874 0 0 0 6.267-16.883C56.482 11.595 44.888 0 30.607 0A25.875 25.875 0 0 0 11 8.991l2.089 1.8a23.118 23.118 0 0 1 17.518-8.034c12.76 0 23.119 10.358 23.119 23.118 0 5.536-1.987 10.889-5.6 15.084l2.089 1.799z"/>
        <path fill="#FFFF40" d="M51.194 9.965A25.874 25.874 0 0 0 33.276 0L33 2.743a23.118 23.118 0 0 1 16.01 8.904l2.184-1.682zM55.32 18.565A25.877 25.877 0 0 0 52.323 12L50 13.483a23.12 23.12 0 0 1 2.676 5.866l2.643-.784z"/>
        <path fill="#DE6F2F" d="M12.579 8A25.875 25.875 0 0 0 5 26.296c0 14.28 11.594 25.875 25.875 25.875 7.71 0 15.019-3.439 19.934-9.38l-2.208-1.826a23.009 23.009 0 0 1-17.726 8.34c-12.7 0-23.01-10.31-23.01-23.009a23.009 23.009 0 0 1 6.74-16.27L12.58 8z"/>
        <path fill="#FFED4A" d="M14.828 13A19.935 19.935 0 0 0 10 26.007c0 11.003 8.932 19.935 19.935 19.935 5.803 0 11.319-2.53 15.106-6.927l-1.61-1.386a17.81 17.81 0 0 1-13.496 6.19c-9.83 0-17.811-7.981-17.811-17.812 0-4.265 1.53-8.389 4.314-11.621L14.828 13z"/>
        <path fill="#FFF" d="M18 41.68a19.932 19.932 0 0 0 5.004 2.826l.767-1.98A17.807 17.807 0 0 1 19.301 40L18 41.68z"/>
        <path fill="#DE6F2F" d="M44.454 40.03a19.935 19.935 0 0 0 5.839-14.095C50.293 14.932 41.36 6 30.358 6 24.418 6 18.788 8.65 15 13.226l1.701 1.407a17.727 17.727 0 0 1 13.657-6.425c9.784 0 17.727 7.943 17.727 17.727 0 4.701-1.868 9.21-5.192 12.534l1.561 1.562z"/>
        <path fill="#FFF" d="M46.481.265a.305.305 0 0 1 .605 0l.888 6.68a1.918 1.918 0 0 0 1.649 1.649l6.68.887a.305.305 0 0 1 0 .605l-6.68.888a1.919 1.919 0 0 0-1.65 1.649l-.887 6.68a.305.305 0 0 1-.605 0l-.887-6.68a1.918 1.918 0 0 0-1.65-1.65l-6.68-.887a.305.305 0 0 1 0-.605l6.68-.887a1.918 1.918 0 0 0 1.65-1.65l.887-6.68z"/>
        <g fill="#DE6F2F" transform="translate(20 16)">
            <circle cx="10.5" cy="4.5" r="4.5"/>
            <circle cx="10.5" cy="16.5" r="4.5"/>
            <circle cx="4.5" cy="10.5" r="4.5" transform="rotate(-90 4.5 10.5)"/>
            <circle cx="16.5" cy="10.5" r="4.5" transform="rotate(-90 16.5 10.5)"/>
        </g>
    </g>
</svg>
