<svg xmlns="http://www.w3.org/2000/svg" xmlns:xlink="http://www.w3.org/1999/xlink" version="1.1" x="0px" y="0px" viewBox="0 0 20 25" enable-background="new 0 0 20 20" xml:space="preserve"><path fill="#000000" d="M12,6.6V4c0-0.3,0.1-0.6,0.4-0.8c0.9-0.6,1.5-1.6,1.6-2.8C14,0.2,13.8,0,13.6,0H6.4C6.2,0,6,0.2,6,0.4  c0.1,1.1,0.7,2.1,1.6,2.8C7.9,3.4,8,3.7,8,4v2.6c0,0.4-0.2,0.8-0.6,1c-1.9,0.9-3.3,2.8-3.4,5C4,12.8,4.2,13,4.4,13h4.4  C8.9,13,9,13.1,9,13.2l0.4,6.4c0.1,0.6,1,0.6,1.1,0l0.4-6.4c0-0.1,0.1-0.2,0.2-0.2h4.4c0.2,0,0.4-0.2,0.4-0.4  c-0.2-2.2-1.5-4.1-3.4-5C12.2,7.4,12,7,12,6.6z"/><text x="0" y="35" fill="#000000" font-size="5px" font-weight="bold" font-family="'Helvetica Neue', Helvetica, Arial-Unicode, Arial, Sans-serif">Created by ProSymbols</text><text x="0" y="40" fill="#000000" font-size="5px" font-weight="bold" font-family="'Helvetica Neue', Helvetica, Arial-Unicode, Arial, Sans-serif">from the Noun Project</text></svg>