<svg xmlns="http://www.w3.org/2000/svg" xmlns:xlink="http://www.w3.org/1999/xlink" width="64" height="64" viewBox="0 0 64 64"><title>A639DE44-7D47-4D57-838A-EAC065A6E076</title><defs><linearGradient x1="75.936" y1="2.146" x2="75.92" y2="34.282" id="c" gradientTransform="scale(.503 1.98804)" gradientUnits="userSpaceOnUse"><stop stop-color="#FFDE54" offset="0%"/><stop stop-color="#FFBA2A" offset="29.014%"/><stop stop-color="#F1AE23" offset="100%"/></linearGradient><path id="a" d="M27.49 17.248L48.887-4.15 48.8 80.42 27.557 59.18z"/><filter x="-11.7%" y="-3%" width="132.7%" height="108.3%" filterUnits="objectBoundingBox" id="b"><feOffset dx="1" dy="1" in="SourceAlpha" result="shadowOffsetOuter1"/><feGaussianBlur stdDeviation="1" in="shadowOffsetOuter1" result="shadowBlurOuter1"/><feColorMatrix values="0 0 0 0 0 0 0 0 0 0 0 0 0 0 0 0 0 0 0.161231884 0" in="shadowBlurOuter1"/></filter></defs><g transform="rotate(45 49.104 11.92)" fill="none" fill-rule="evenodd"><use height="100%" width="100%" xlink:href="#a" fill="#000" filter="url(#b)"/><use height="100%" width="100%" xlink:href="#a" fill="url(#c)"/></g><g font-weight="700" font-family="Avenir-Black,Avenir" letter-spacing=".001" fill="#fff" fill-rule="evenodd"><path d="M7.727 37.407q.29.29.467.67.174.377.174.755-.003.513-.192.963-.185.446-.658.92l-.693.692 1.406 1.407-1.112 1.114-4.32-4.32 1.834-1.832q.412-.412.765-.62.354-.216.714-.29.433-.09.836.04.406.127.78.5zM6.6 38.585q-.182-.183-.41-.215-.233-.034-.415.044-.244.104-.415.264-.174.156-.45.432l-.19.19 1.292 1.295.32-.32q.284-.283.432-.5.15-.22.17-.45.015-.2-.066-.375-.08-.18-.267-.365zM10.895 34.158q-.163-.162-.345-.212-.183-.05-.412.047-.16.066-.32.21-.162.138-.362.338l-.403.404 1.163 1.163.342-.342q.267-.267.42-.473.155-.206.184-.42.026-.206-.03-.366-.055-.165-.237-.348zm4.733 1.26l-1.36 1.36-2.76-.407-.515.515 1.584 1.583-1.108 1.108-4.32-4.32 1.868-1.867q.383-.383.702-.616.32-.232.705-.327.388-.1.763-.01.374.085.722.433.48.48.557 1.004.08.522-.13 1.134zM18.164 28.565q1.033 1.033 1.05 2.234.015 1.197-1.03 2.24-1.04 1.042-2.24 1.028-1.2-.018-2.232-1.05-1.042-1.042-1.053-2.237-.016-1.197 1.026-2.238 1.038-1.04 2.24-1.027 1.197.01 2.238 1.05zm-.383 2.57q-.033-.36-.222-.705-.19-.348-.554-.71-.39-.39-.75-.572-.364-.183-.677-.206-.322-.026-.595.09-.27.113-.478.322-.212.212-.325.476-.11.26-.094.59.017.31.212.69.194.373.57.75.387.386.747.572.36.18.675.206.317.026.592-.087.276-.113.49-.327.215-.215.328-.49.11-.28.08-.598zM25.698 25.348l-1.108 1.108-2.892-2.892 1.076 2.677-.77.77-2.676-1.076 2.892 2.892-1.05 1.05-4.32-4.32 1.295-1.293 3.138 1.195-1.198-3.136 1.294-1.293zM28.84 17.89q1.032 1.032 1.05 2.233.014 1.198-1.03 2.242-1.04 1.042-2.24 1.027-1.2-.017-2.233-1.05-1.04-1.04-1.053-2.236-.014-1.198 1.027-2.24 1.04-1.038 2.24-1.026 1.198.008 2.24 1.05zm-.383 2.57q-.035-.36-.224-.705-.19-.348-.554-.71-.39-.39-.752-.572-.362-.183-.676-.206-.322-.026-.594.09-.27.113-.48.322-.21.21-.324.474-.11.26-.093.592.02.308.213.688.194.374.572.75.385.387.745.572.36.18.676.206.316.026.592-.087.275-.113.49-.328.214-.214.328-.49.11-.278.08-.597zM31.74 12.337l-1.348 1.35 3.484 3.483-1.114 1.114-3.484-3.484-1.35 1.35-.834-.837 3.81-3.81zM39.02 12.026l-3.125 3.124-4.32-4.32L34.7 7.708l.835.836-2.015 2.016.745.744 1.87-1.87.836.835-1.87 1.87 1.068 1.067 2.016-2.016zM41.883 4.853q.603.603.806 1.357.2.75.034 1.427-.125.508-.427.96-.3.453-.818.97l-1.523 1.522-4.32-4.32 1.567-1.566q.528-.528 1-.82.47-.297.894-.396.72-.174 1.44.035.718.203 1.345.83zm-1.16 1.142q-.427-.426-.885-.57-.46-.152-.966.013-.256.088-.464.238-.21.145-.57.505l-.28.282 2.703 2.704.282-.282q.398-.397.55-.617.147-.224.228-.496.13-.478-.018-.91-.15-.435-.58-.865z"/></g></svg>