<svg xmlns="http://www.w3.org/2000/svg" width="20" height="18" viewBox="0 0 20 18">
    <path fill="#333131" fill-opacity=".242" fill-rule="nonzero" d="M3.077 3.75a.712.712 0 0 1-.228.527.749.749 0 0 1-.541.223.743.743 0 0 1-.547-.223.721.721 0 0 1-.223-.527.753.753 0 0 1 .77-.75.76.76 0 0 1 .54.217.706.706 0 0 1 .229.533zm2.308 6v-7.5a.69.69 0 0 0-.246-.527.839.839 0 0 0-.583-.223H.828a.839.839 0 0 0-.582.223A.69.69 0 0 0 0 2.25v7.5a.69.69 0 0 0 .246.527.839.839 0 0 0 .582.223h3.728a.839.839 0 0 0 .583-.223.69.69 0 0 0 .246-.527zM20 9.75c0-.672-.227-1.254-.68-1.746.124-.344.185-.64.185-.89a2.347 2.347 0 0 0-.531-1.606c.14-.438.14-.895 0-1.371a2.257 2.257 0 0 0-.668-1.102c.074-.875-.127-1.582-.605-2.12-.528-.595-1.34-.9-2.436-.915H13.67c-.544 0-1.137.06-1.78.182a16.34 16.34 0 0 0-1.502.34c-.358.105-.855.26-1.49.462-1.013.336-1.664.508-1.953.516a.84.84 0 0 0-.556.229.685.685 0 0 0-.235.521v7.512c0 .195.074.365.222.51a.83.83 0 0 0 .532.24c.198.015.511.246.94.691.428.445.844.918 1.248 1.418.56.68.977 1.149 1.249 1.406.148.141.276.328.383.563.107.234.18.424.216.568.037.145.093.381.167.71.058.304.11.542.155.714.045.172.125.375.24.61.116.234.256.43.421.585a.781.781 0 0 0 .557.223c.379 0 .719-.041 1.02-.123.3-.082.548-.184.741-.305.194-.12.359-.279.495-.474a2.67 2.67 0 0 0 .296-.528 2.81 2.81 0 0 0 .149-.586c.037-.234.057-.41.062-.527.004-.117.006-.27.006-.457 0-.297-.04-.594-.118-.89a4.566 4.566 0 0 0-.235-.704 9.416 9.416 0 0 0-.463-.867 1.937 1.937 0 0 1-.235-.539h3.424c.643 0 1.2-.223 1.67-.668.47-.445.704-.973.704-1.582z"/>
</svg>
